<svg width="330" height="288" viewBox="0 0 330 288" fill="none" xmlns="http://www.w3.org/2000/svg">
<path fill-rule="evenodd" clip-rule="evenodd" d="M33.7979 160.225L13 163C13.2718 172.242 13.0726 199.065 13.0145 206.877C13.0056 208.08 13 208.833 13 209C13 209.011 13.0161 209.021 13.048 209.029C11.679 259.508 74.5683 293.703 156.218 285.91C239.938 277.919 311.679 228.81 316.456 176.221C316.778 172.677 316.788 169.209 316.5 165.823V122.5L295.271 125.333C270.305 102.681 225.749 90.4823 173.516 95.4675C114.649 101.086 61.7053 127.033 33.7979 160.225Z" fill="#FBB023"/>
<mask id="mask0_627_9585" style="mask-type:alpha" maskUnits="userSpaceOnUse" x="13" y="94" width="304" height="194">
<path fill-rule="evenodd" clip-rule="evenodd" d="M33.7982 160.224L12.9996 163C13.2715 172.242 13.0722 199.065 13.0142 206.877C13.0052 208.08 12.9996 208.832 12.9996 209C12.9996 209.011 13.0158 209.021 13.048 209.029C11.6789 259.508 74.5682 293.703 156.218 285.91C239.938 277.919 311.679 228.81 316.456 176.221C316.778 172.676 316.788 169.206 316.5 165.819V122.5L295.271 125.333C270.304 102.68 225.749 90.4823 173.516 95.4675C114.649 101.086 61.7058 127.033 33.7982 160.224Z" fill="#FBB023"/>
</mask>
<g mask="url(#mask0_627_9585)">
<line y1="-1" x2="172.767" y2="-1" transform="matrix(-0.00187911 0.999998 0.999975 0.00706684 161.988 125.365)" stroke="#E69804" stroke-width="2"/>
<line y1="-1" x2="172.767" y2="-1" transform="matrix(-0.00187911 0.999998 0.999975 0.00706684 249.82 125.986)" stroke="#E69804" stroke-width="2"/>
<line y1="-1" x2="172.767" y2="-1" transform="matrix(-0.00187911 0.999998 0.999975 0.00706684 74.1562 124.744)" stroke="#E69804" stroke-width="2"/>
<line y1="-1" x2="173.984" y2="-1" transform="matrix(-0.00187911 0.999998 0.999975 0.00706684 293.734 126.297)" stroke="#E69804" stroke-width="2"/>
<line y1="-1" x2="173.984" y2="-1" transform="matrix(-0.00187911 0.999998 0.999975 0.00706684 118.07 125.055)" stroke="#E69804" stroke-width="2"/>
<line y1="-1" x2="173.984" y2="-1" transform="matrix(-0.00187911 0.999998 0.999975 0.00706684 205.906 125.676)" stroke="#E69804" stroke-width="2"/>
<line y1="-1" x2="173.984" y2="-1" transform="matrix(-0.00187911 0.999998 0.999975 0.00706684 30.2383 124.434)" stroke="#E69804" stroke-width="2"/>
<line y1="-1" x2="172.767" y2="-1" transform="matrix(-0.00187911 0.999998 0.999975 0.00706684 312.559 126.43)" stroke="#E69804" stroke-width="2"/>
<line y1="-1" x2="172.767" y2="-1" transform="matrix(-0.00187911 0.999998 0.999975 0.00706684 136.895 125.188)" stroke="#E69804" stroke-width="2"/>
<line y1="-1" x2="172.767" y2="-1" transform="matrix(-0.00187911 0.999998 0.999975 0.00706684 224.727 125.807)" stroke="#E69804" stroke-width="2"/>
<line y1="-1" x2="172.767" y2="-1" transform="matrix(-0.00187911 0.999998 0.999975 0.00706684 49.0586 124.568)" stroke="#E69804" stroke-width="2"/>
<line y1="-1" x2="172.767" y2="-1" transform="matrix(-0.00187911 0.999998 0.999975 0.00706684 268.641 126.119)" stroke="#E69804" stroke-width="2"/>
<line y1="-1" x2="172.767" y2="-1" transform="matrix(-0.00187911 0.999998 0.999975 0.00706684 92.9766 124.879)" stroke="#E69804" stroke-width="2"/>
<line y1="-1" x2="172.767" y2="-1" transform="matrix(-0.00187911 0.999998 0.999975 0.00706684 180.809 125.498)" stroke="#E69804" stroke-width="2"/>
<line y1="-1" x2="172.767" y2="-1" transform="matrix(-0.00187911 0.999998 0.999975 0.00706684 155.715 125.32)" stroke="#E69804" stroke-width="2"/>
<line y1="-1" x2="172.767" y2="-1" transform="matrix(-0.00187911 0.999998 0.999975 0.00706684 243.547 125.941)" stroke="#E69804" stroke-width="2"/>
<line y1="-1" x2="172.767" y2="-1" transform="matrix(-0.00187911 0.999998 0.999975 0.00706684 67.8789 124.699)" stroke="#E69804" stroke-width="2"/>
<line y1="-1" x2="173.984" y2="-1" transform="matrix(-0.00187911 0.999998 0.999975 0.00706684 287.461 126.252)" stroke="#E69804" stroke-width="2"/>
<line y1="-1" x2="173.984" y2="-1" transform="matrix(-0.00187911 0.999998 0.999975 0.00706684 111.797 125.012)" stroke="#E69804" stroke-width="2"/>
<line y1="-1" x2="173.984" y2="-1" transform="matrix(-0.00187911 0.999998 0.999975 0.00706684 199.633 125.633)" stroke="#E69804" stroke-width="2"/>
<line y1="-1" x2="173.984" y2="-1" transform="matrix(-0.00187911 0.999998 0.999975 0.00706684 23.9648 124.389)" stroke="#E69804" stroke-width="2"/>
<line y1="-1" x2="172.767" y2="-1" transform="matrix(-0.00187911 0.999998 0.999975 0.00706684 149.441 125.277)" stroke="#E69804" stroke-width="2"/>
<line y1="-1" x2="172.767" y2="-1" transform="matrix(-0.00187911 0.999998 0.999975 0.00706684 237.273 125.898)" stroke="#E69804" stroke-width="2"/>
<line y1="-1" x2="172.767" y2="-1" transform="matrix(-0.00187911 0.999998 0.999975 0.00706684 61.6055 124.656)" stroke="#E69804" stroke-width="2"/>
<line y1="-1" x2="173.984" y2="-1" transform="matrix(-0.00187911 0.999998 0.999975 0.00706684 281.188 126.207)" stroke="#E69804" stroke-width="2"/>
<line y1="-1" x2="173.984" y2="-1" transform="matrix(-0.00187911 0.999998 0.999975 0.00706684 105.523 124.967)" stroke="#E69804" stroke-width="2"/>
<line y1="-1" x2="173.984" y2="-1" transform="matrix(-0.00187911 0.999998 0.999975 0.00706684 193.355 125.588)" stroke="#E69804" stroke-width="2"/>
<line y1="-1" x2="173.984" y2="-1" transform="matrix(-0.00187911 0.999998 0.999975 0.00706684 17.6914 124.346)" stroke="#E69804" stroke-width="2"/>
<line y1="-1" x2="172.767" y2="-1" transform="matrix(-0.00187911 0.999998 0.999975 0.00706684 306.285 126.385)" stroke="#E69804" stroke-width="2"/>
<line y1="-1" x2="172.767" y2="-1" transform="matrix(-0.00187911 0.999998 0.999975 0.00706684 130.617 125.145)" stroke="#E69804" stroke-width="2"/>
<line y1="-1" x2="172.767" y2="-1" transform="matrix(-0.00187911 0.999998 0.999975 0.00706684 218.453 125.764)" stroke="#E69804" stroke-width="2"/>
<line y1="-1" x2="172.767" y2="-1" transform="matrix(-0.00187911 0.999998 0.999975 0.00706684 42.7852 124.521)" stroke="#E69804" stroke-width="2"/>
<line y1="-1" x2="172.767" y2="-1" transform="matrix(-0.00187911 0.999998 0.999975 0.00706684 262.367 126.074)" stroke="#E69804" stroke-width="2"/>
<line y1="-1" x2="172.767" y2="-1" transform="matrix(-0.00187911 0.999998 0.999975 0.00706684 86.7031 124.834)" stroke="#E69804" stroke-width="2"/>
<line y1="-1" x2="172.767" y2="-1" transform="matrix(-0.00187911 0.999998 0.999975 0.00706684 174.535 125.453)" stroke="#E69804" stroke-width="2"/>
<line y1="-1" x2="172.767" y2="-1" transform="matrix(-0.00187911 0.999998 0.999975 0.00706684 318.832 126.473)" stroke="#E69804" stroke-width="2"/>
<line y1="-1" x2="172.767" y2="-1" transform="matrix(-0.00187911 0.999998 0.999975 0.00706684 143.168 125.232)" stroke="#E69804" stroke-width="2"/>
<line y1="-1" x2="172.767" y2="-1" transform="matrix(-0.00187911 0.999998 0.999975 0.00706684 231 125.854)" stroke="#E69804" stroke-width="2"/>
<line y1="-1" x2="172.767" y2="-1" transform="matrix(-0.00187911 0.999998 0.999975 0.00706684 55.332 124.613)" stroke="#E69804" stroke-width="2"/>
<line y1="-1" x2="172.767" y2="-1" transform="matrix(-0.00187911 0.999998 0.999975 0.00706684 274.914 126.164)" stroke="#E69804" stroke-width="2"/>
<line y1="-1" x2="172.767" y2="-1" transform="matrix(-0.00187911 0.999998 0.999975 0.00706684 99.25 124.922)" stroke="#E69804" stroke-width="2"/>
<line y1="-1" x2="172.767" y2="-1" transform="matrix(-0.00187911 0.999998 0.999975 0.00706684 187.082 125.545)" stroke="#E69804" stroke-width="2"/>
<line y1="-1" x2="173.984" y2="-1" transform="matrix(-0.00187911 0.999998 0.999975 0.00706684 300.008 126.34)" stroke="#E69804" stroke-width="2"/>
<line y1="-1" x2="173.984" y2="-1" transform="matrix(-0.00187911 0.999998 0.999975 0.00706684 124.344 125.1)" stroke="#E69804" stroke-width="2"/>
<line y1="-1" x2="173.984" y2="-1" transform="matrix(-0.00187911 0.999998 0.999975 0.00706684 212.18 125.719)" stroke="#E69804" stroke-width="2"/>
<line y1="-1" x2="173.984" y2="-1" transform="matrix(-0.00187911 0.999998 0.999975 0.00706684 36.5117 124.479)" stroke="#E69804" stroke-width="2"/>
<line y1="-1" x2="172.767" y2="-1" transform="matrix(-0.00187911 0.999998 0.999975 0.00706684 256.094 126.031)" stroke="#E69804" stroke-width="2"/>
<line y1="-1" x2="172.767" y2="-1" transform="matrix(-0.00187911 0.999998 0.999975 0.00706684 80.4297 124.787)" stroke="#E69804" stroke-width="2"/>
<line y1="-1" x2="172.767" y2="-1" transform="matrix(-0.00187911 0.999998 0.999975 0.00706684 168.262 125.41)" stroke="#E69804" stroke-width="2"/>
</g>
<ellipse rx="152.278" ry="95.6132" transform="matrix(-0.995476 0.0950093 -0.0904582 0.9959 164.863 143.843)" fill="#FDD487"/>
<ellipse rx="123.875" ry="68.7719" transform="matrix(-0.995476 0.0950093 -0.0904582 0.9959 164.859 143.845)" fill="#FEE6B9"/>
<mask id="mask1_627_9585" style="mask-type:alpha" maskUnits="userSpaceOnUse" x="13" y="47" width="304" height="194">
<ellipse rx="152.278" ry="95.6132" transform="matrix(-0.995476 0.0950093 -0.0904582 0.9959 164.863 143.843)" fill="#FDD487"/>
</mask>
<g mask="url(#mask1_627_9585)">
<path opacity="0.2" d="M86.2799 248.852C9.30978 114.19 134.106 114.19 232 36H125.886L-25.8125 92.4708L-43 215.548C-11.1159 241.612 117.895 304.163 86.2799 248.852Z" fill="#E69804"/>
</g>
</svg>
