<svg width="807" height="960" viewBox="0 0 807 960" fill="none" xmlns="http://www.w3.org/2000/svg">
<path d="M122.611 766.387C95.566 771.998 48.9373 771.877 29.8816 741.489C28.1894 741.826 26.4423 742.141 24.6389 742.432C-58.9908 755.949 -25.3333 681.741 -11.6142 672.957C-26.1051 697.347 -22.6671 737.835 23.3119 725.627C21.5897 718.506 20.9632 710.312 21.6976 700.907C27.6927 624.121 112.302 699.276 57.583 731.677C68.7259 736.148 84.8541 737.227 106.936 732.049L122.611 766.387Z" fill="#9BDFE9"/>
<g opacity="0.3">
<mask id="mask0_656_13408" style="mask-type:alpha" maskUnits="userSpaceOnUse" x="-30" y="667" width="153" height="103">
<path d="M122.611 766.389C95.566 772 48.9373 771.878 29.8816 741.491C28.1894 741.828 26.4423 742.142 24.6389 742.434C-58.9908 755.951 -25.3333 681.743 -11.6142 672.959C-26.1051 697.349 -22.6671 737.837 23.3119 725.629C21.5897 718.508 20.9632 710.314 21.6976 700.909C27.6927 624.122 112.302 699.278 57.583 731.679C68.7259 736.15 84.8541 737.229 106.936 732.051L122.611 766.389Z" fill="#F5C3C3"/>
</mask>
<g mask="url(#mask0_656_13408)">
<path d="M103.538 757.571C19.6021 744.006 32.5317 689.744 49.4885 664.309C4.97732 664.309 15.8972 695.737 20.8721 717.299C33.5875 772.408 77.3941 781.593 114.134 773.468L103.538 757.571Z" fill="#2BBCD2"/>
</g>
</g>
<path d="M806.252 733.103C799.469 815.343 762.798 815.766 709.808 812.587C656.818 809.407 589.388 790.954 530.702 743.7C506.279 699.024 495.035 634.816 495.683 604.699C527.123 603.64 592.596 601.264 640.923 616.525C689.25 631.786 702.038 684.352 702.392 708.727L806.252 733.103Z" fill="#9BDFE9"/>
<mask id="mask1_656_13408" style="mask-type:alpha" maskUnits="userSpaceOnUse" x="495" y="603" width="312" height="211">
<path d="M806.252 733.103C799.469 815.343 762.798 815.766 709.808 812.587C656.818 809.407 589.388 790.954 530.702 743.7C506.279 699.024 495.035 634.816 495.683 604.699C527.123 603.64 592.596 601.264 640.923 616.525C689.25 631.786 702.038 684.352 702.392 708.727L806.252 733.103Z" fill="#F5C3C3"/>
</mask>
<g mask="url(#mask1_656_13408)">
<path opacity="0.3" d="M701.283 813.482C705.919 823.858 694.924 816.66 688.565 811.364C654.652 759.433 700.93 661.933 727.778 715.983C727.778 715.983 679.027 763.673 701.283 813.482Z" fill="#2BBCD2"/>
<path opacity="0.3" d="M689.599 812.68C696.417 821.772 624.951 801.022 622.827 752.274C588.913 700.343 656.392 576.346 683.24 630.396C683.24 630.396 657.805 770.288 689.599 812.68Z" fill="#2BBCD2"/>
</g>
<path d="M806.206 736.119C774.389 725.415 698.503 737.953 678.367 748.551C678.367 748.551 689.284 674.365 713.341 674.365C730.298 674.365 746.191 709.579 746.191 709.579C746.191 709.579 767.829 663.895 791.132 668.743C806.436 671.927 808.212 723.367 806.206 736.119Z" fill="#7E7E7E"/>
<g opacity="0.3">
<mask id="mask2_656_13408" style="mask-type:alpha" maskUnits="userSpaceOnUse" x="678" y="668" width="129" height="81">
<path d="M806.206 736.119C774.389 725.415 698.503 737.953 678.367 748.551C678.367 748.551 689.284 674.365 713.341 674.365C730.298 674.365 746.191 709.579 746.191 709.579C746.191 709.579 767.829 663.895 791.132 668.743C806.436 671.927 808.212 723.367 806.206 736.119Z" fill="#7E7E7E"/>
</mask>
<g mask="url(#mask2_656_13408)">
<path d="M710.5 738.777C733.81 701.805 743.692 690.185 750.05 685.96L699.19 662.721L674.82 685.96L670.582 738.777L674.82 754.622L710.5 738.777Z" fill="#5F5F5F"/>
</g>
</g>
<path d="M267.802 421.615C230.497 424.159 220.111 432.213 217.991 436.452C215.872 438.572 212.059 453.621 205.277 471.426C198.494 489.23 228.592 523.356 244.489 538.193L292.18 502.16C268.441 486.899 264.623 443.871 267.802 421.615Z" fill="#7E7E7E"/>
<g opacity="0.3">
<mask id="mask3_656_13408" style="mask-type:alpha" maskUnits="userSpaceOnUse" x="204" y="421" width="89" height="118">
<path d="M267.798 421.615C230.493 424.159 220.107 432.213 217.988 436.452C215.868 438.572 212.055 453.621 205.273 471.426C198.49 489.23 228.588 523.356 244.485 538.193L292.176 502.16C268.437 486.899 264.619 443.871 267.798 421.615Z" fill="#EE9696"/>
</mask>
<g mask="url(#mask3_656_13408)">
<path d="M248.723 530.777L252.96 526.538C222.422 492.183 220.068 444.1 227.527 435.395C233.886 427.975 258.261 432.214 256.142 421.617C255.801 419.912 225.259 428.718 225.405 426.917L215.869 431.156C201.456 481.179 231.766 518.413 248.723 530.777Z" fill="#5F5F5F"/>
</g>
</g>
<path fill-rule="evenodd" clip-rule="evenodd" d="M737.296 345.311C756.37 255.228 742.595 80.3609 513.678 101.557C348.734 116.829 349.109 241.515 349.388 334.119C349.399 337.906 349.41 341.64 349.41 345.311C349.41 346.699 342.013 351.088 329.704 358.39C312.737 368.456 286.436 384.059 257.309 404.976C240.934 463.687 263.167 496.108 277.341 505.338L248.728 527.594C216.45 497.215 214.842 459.434 220.804 433.12C151.131 490.975 80.5061 576.356 87.6393 686.568C97.1734 833.876 197.73 912.456 329.271 916.541C499.898 921.84 658.868 859.312 673.705 538.193C677.491 456.26 697.55 423.55 714.661 395.649C724.272 379.977 732.953 365.821 737.296 345.311Z" fill="#9BDFE9"/>
<mask id="mask4_656_13408" style="mask-type:alpha" maskUnits="userSpaceOnUse" x="87" y="99" width="657" height="818">
<path fill-rule="evenodd" clip-rule="evenodd" d="M737.296 345.311C756.37 255.228 742.595 80.3609 513.678 101.557C348.734 116.829 349.109 241.515 349.388 334.119C349.399 337.906 349.41 341.64 349.41 345.311C349.41 346.699 342.013 351.088 329.704 358.39C312.737 368.456 286.436 384.059 257.309 404.976C240.934 463.687 263.167 496.108 277.341 505.338L248.728 527.594C216.45 497.215 214.842 459.434 220.804 433.12C151.131 490.975 80.5061 576.356 87.6393 686.568C97.1734 833.876 197.73 912.456 329.271 916.541C499.898 921.84 658.868 859.312 673.705 538.193C677.491 456.26 697.55 423.55 714.661 395.649C724.272 379.977 732.953 365.821 737.296 345.311Z" fill="#F5C3C3"/>
</mask>
<g mask="url(#mask4_656_13408)">
<path opacity="0.3" d="M158.647 284.9C-96.5532 618.101 62.909 822.218 174.54 882.626C58.7264 606.091 228.923 434.735 353.649 370.768C358.311 368.377 417.237 439.631 460.689 439.631C399.22 416.316 380.144 359.087 381.204 358.025C378.676 325.999 378.083 297.026 381.204 270.415C459.629 212.832 465.988 164.081 470.227 130.168C479.765 112.153 485.064 102.615 512.619 97.3164C531.695 43.2633 413.846 -48.3014 158.647 284.9Z" fill="#2BBCD2"/>
<path opacity="0.5" d="M349.511 920.253C140.418 710.344 492.651 430.454 636.532 545.673C780.413 660.892 558.605 1130.16 349.511 920.253Z" fill="#2BBCD2"/>
</g>
<path d="M651.029 66.8659C604.837 98.1929 606.99 127.562 613.84 138.331L718.553 237.206C832.859 137.743 753.784 33.2547 708.766 6.16992C708.767 13.349 697.221 35.5389 651.029 66.8659Z" fill="#9BDFE9"/>
<mask id="mask5_656_13408" style="mask-type:alpha" maskUnits="userSpaceOnUse" x="610" y="6" width="168" height="232">
<path d="M651.029 66.8659C604.837 98.1929 606.99 127.562 613.84 138.331L718.553 237.206C832.859 137.743 753.784 33.2547 708.766 6.16992C708.767 13.349 697.221 35.5389 651.029 66.8659Z" fill="#F5C3C3"/>
</mask>
<g mask="url(#mask5_656_13408)">
<path opacity="0.3" d="M688.544 72.9386C709.742 36.9054 731.289 14.2963 736.235 -1.24742L706.563 -8.66602L579.387 115.331L688.544 183.158C677.593 155.603 671.15 102.505 688.544 72.9386Z" fill="#2BBCD2"/>
</g>
<path d="M420.409 79.9193C450.911 88.6248 477.663 114.671 476.475 137.872C475.468 157.543 461.558 187.455 442.674 213.895C420.91 244.369 393.923 271.124 370.422 276.939C357.749 280.075 284.354 222.704 267.807 158.786C253.667 104.166 292.974 43.6223 315.381 24.5886C328.642 35.95 384.964 69.8031 420.409 79.9193Z" fill="#9BDFE9"/>
<g opacity="0.3">
<mask id="mask6_656_13408" style="mask-type:alpha" maskUnits="userSpaceOnUse" x="264" y="24" width="213" height="254">
<path d="M420.409 79.9193C450.911 88.6248 477.663 114.671 476.475 137.872C475.468 157.543 461.558 187.455 442.674 213.895C420.91 244.369 393.923 271.124 370.422 276.939C357.749 280.075 284.354 222.704 267.807 158.786C253.667 104.166 292.974 43.6223 315.381 24.5886C328.642 35.95 384.964 69.8031 420.409 79.9193Z" fill="#F5C3C3"/>
</mask>
<g mask="url(#mask6_656_13408)">
<path d="M360.011 171.5C319.331 113.003 316.596 52.6302 325.186 12.6334L275.449 29.2479L209.137 174.707L369.026 303.679L489.307 174.707L477.649 119.57C477.649 119.57 390.233 214.959 360.011 171.5Z" fill="#2BBCD2"/>
</g>
</g>
<ellipse cx="675.826" cy="341.069" rx="97.5016" ry="67.8272" fill="#2BBCD2"/>
<g opacity="0.3">
<mask id="mask7_656_13408" style="mask-type:alpha" maskUnits="userSpaceOnUse" x="578" y="273" width="196" height="136">
<ellipse cx="675.826" cy="341.069" rx="97.5016" ry="67.8272" fill="#EE9696"/>
</mask>
<g mask="url(#mask7_656_13408)">
<path d="M646.146 410.532C578.319 351.183 625.658 295.014 650.386 272.758C623.537 276.644 561.15 294.224 556.063 344.247C550.976 394.27 611.525 409.119 646.146 410.532Z" fill="#208D9E"/>
</g>
</g>
<ellipse cx="660.985" cy="341.069" rx="10.598" ry="19.0764" fill="#208D9E"/>
<ellipse cx="713.977" cy="341.069" rx="10.598" ry="19.0764" fill="#208D9E"/>
<ellipse cx="530.629" cy="276.42" rx="13.7774" ry="22.2558" fill="#5F5F5F"/>
<ellipse cx="734.113" cy="255.225" rx="13.7774" ry="22.2558" fill="#5F5F5F"/>
<path opacity="0.3" d="M567.202 347.67C565.871 272.607 672.64 266.935 672.64 266.935C631.312 261.584 552.626 282.989 567.202 347.67Z" fill="#2BBCD2"/>
<path d="M558.948 416.513C531.12 415.228 505.807 385.58 505.807 385.58C510.606 405.595 533.433 436.964 558.948 416.513Z" fill="#5F5F5F"/>
<path d="M461.583 909.26L356.824 564.986L527.452 470.363L559.01 883.358C545.6 898.899 494.059 922.211 461.583 909.26Z" fill="#9BDFE9"/>
<mask id="mask8_656_13408" style="mask-type:alpha" maskUnits="userSpaceOnUse" x="356" y="470" width="204" height="444">
<path d="M461.583 909.26L356.824 564.986L527.452 470.363L559.01 883.358C545.6 898.899 494.059 922.211 461.583 909.26Z" fill="#F5C3C3"/>
</mask>
<g mask="url(#mask8_656_13408)">
<path opacity="0.3" d="M503.075 910.18C459.624 878.386 442.667 728.954 357.883 566.805L330.328 579.522L438.428 920.778L503.075 910.18Z" fill="#2BBCD2"/>
</g>
<path d="M559.016 880.123C539.053 901.874 481.527 911.507 461.59 909.262C461.59 909.262 515.017 948.114 534.921 936.242C548.122 928.369 540.159 911.42 540.159 911.42C540.159 911.42 565.301 921.133 575.777 911.42C585.73 902.193 573.682 887.677 559.016 880.123Z" fill="#7E7E7E"/>
<g opacity="0.3">
<mask id="mask9_656_13408" style="mask-type:alpha" maskUnits="userSpaceOnUse" x="461" y="880" width="119" height="59">
<path d="M559.016 880.123C539.053 901.874 481.527 911.507 461.59 909.262C461.59 909.262 515.017 948.114 534.921 936.242C548.122 928.369 540.159 911.42 540.159 911.42C540.159 911.42 565.301 921.133 575.777 911.42C585.73 902.193 573.682 887.677 559.016 880.123Z" fill="#7E7E7E"/>
</mask>
<g mask="url(#mask9_656_13408)">
<path d="M553.948 926.076C524.273 928.619 504.137 913.711 497.778 905.939H449.027L525.333 952.571L553.948 926.076Z" fill="#5F5F5F"/>
</g>
</g>
<path d="M450.139 853.116C443.356 935.357 406.685 935.78 353.695 932.6C300.705 929.421 233.275 910.968 174.589 863.713C150.166 819.037 138.922 754.83 139.569 724.713C171.01 723.653 236.483 721.277 284.81 736.538C333.137 751.8 345.925 804.366 346.278 828.741L450.139 853.116Z" fill="#9BDFE9"/>
<mask id="mask10_656_13408" style="mask-type:alpha" maskUnits="userSpaceOnUse" x="139" y="723" width="312" height="211">
<path d="M450.139 853.116C443.356 935.357 406.685 935.78 353.695 932.6C300.705 929.421 233.275 910.968 174.589 863.713C150.166 819.037 138.922 754.83 139.569 724.713C171.01 723.653 236.483 721.277 284.81 736.538C333.137 751.8 345.925 804.366 346.278 828.741L450.139 853.116Z" fill="#F5C3C3"/>
</mask>
<g mask="url(#mask10_656_13408)">
<path opacity="0.3" d="M345.17 933.496C349.806 943.872 338.811 936.673 332.452 931.377C298.538 879.447 344.816 781.947 371.665 835.997C371.665 835.997 322.914 883.687 345.17 933.496Z" fill="#2BBCD2"/>
</g>
<path d="M450.088 856.133C418.272 845.429 342.386 857.966 322.25 868.564C322.25 868.564 333.166 794.378 357.223 794.378C374.181 794.378 390.073 829.593 390.073 829.593C390.073 829.593 411.712 783.909 435.015 788.757C450.319 791.94 452.095 843.381 450.088 856.133Z" fill="#7E7E7E"/>
<g opacity="0.3">
<mask id="mask11_656_13408" style="mask-type:alpha" maskUnits="userSpaceOnUse" x="322" y="788" width="129" height="81">
<path d="M450.096 856.133C418.28 845.429 342.394 857.966 322.258 868.564C322.258 868.564 333.174 794.378 357.231 794.378C374.189 794.378 390.081 829.593 390.081 829.593C390.081 829.593 411.72 783.909 435.023 788.757C450.326 791.94 452.103 843.381 450.096 856.133Z" fill="#7E7E7E"/>
</mask>
<g mask="url(#mask11_656_13408)">
<path d="M352.594 859.313C375.91 822.22 387.568 810.563 393.926 806.323L343.056 783.008L318.681 806.323L314.441 859.313L318.681 875.21L352.594 859.313Z" fill="#5F5F5F"/>
</g>
</g>
<path d="M566.114 846.012L530.631 517.002L679.002 438.576L666.826 831.232C651.711 844.959 597.425 862.161 566.114 846.012Z" fill="#9BDFE9"/>
<g opacity="0.3">
<mask id="mask12_656_13408" style="mask-type:alpha" maskUnits="userSpaceOnUse" x="530" y="438" width="150" height="415">
<path d="M566.114 846.012L530.631 517.002L679.002 438.576L666.826 831.232C651.711 844.959 597.425 862.161 566.114 846.012Z" fill="#F5C3C3"/>
</mask>
<g mask="url(#mask12_656_13408)">
<path d="M595.279 850.836C577.262 803.149 551.827 612.385 530.631 517.003L525.332 512.764L561.365 850.836H595.279Z" fill="#2BBCD2"/>
</g>
</g>
<path d="M667.172 828.068C644.813 847.153 585.94 850.353 566.121 846.01C566.121 846.01 615.794 889.708 637.059 880.264C651.161 874.001 644.927 856.593 644.927 856.593C644.927 856.593 669.2 868.789 680.755 860.435C691.732 852.499 681.133 837.027 667.172 828.068Z" fill="#7E7E7E"/>
<g opacity="0.3">
<mask id="mask13_656_13408" style="mask-type:alpha" maskUnits="userSpaceOnUse" x="566" y="828" width="120" height="54">
<path d="M667.168 828.066C644.809 847.151 585.936 850.351 566.117 846.008C566.117 846.008 615.79 889.707 637.055 880.262C651.158 873.999 644.923 856.591 644.923 856.591C644.923 856.591 669.196 868.787 680.751 860.433C691.728 852.497 681.129 837.025 667.168 828.066Z" fill="#7E7E7E"/>
</mask>
<g mask="url(#mask13_656_13408)">
<path d="M651.446 870.973C626.009 877.754 602.695 858.255 594.217 847.657L568.782 840.234L558.184 846.593L615.413 888.985L646.147 891.105L651.446 870.973Z" fill="#5F5F5F"/>
</g>
</g>
</svg>
